<svg width="131" height="41" viewBox="0 0 131 41" fill="none" xmlns="http://www.w3.org/2000/svg">
<path d="M68.7308 10.4477C68.731 10.9717 68.5758 11.4839 68.2849 11.9196C67.9939 12.3554 67.5803 12.6951 67.0962 12.8958C66.6122 13.0964 66.0796 13.149 65.5656 13.0469C65.0517 12.9448 64.5796 12.6926 64.209 12.3222C63.8385 11.9517 63.5861 11.4797 63.4838 10.9659C63.3815 10.452 63.4339 9.91928 63.6344 9.43518C63.8348 8.95108 64.1744 8.53731 64.61 8.24619C65.0456 7.95507 65.5578 7.79968 66.0818 7.79968C66.4298 7.79889 66.7746 7.86682 67.0962 7.9996C67.4179 8.13239 67.7102 8.32739 67.9563 8.57343C68.2025 8.81946 68.3976 9.11169 68.5305 9.43332C68.6634 9.75495 68.7315 10.0997 68.7308 10.4477ZM57.8108 15.7857V16.4377C57.3098 15.8954 56.6969 15.4686 56.0145 15.187C55.332 14.9053 54.5964 14.7755 53.8588 14.8067C51.7461 14.8474 49.7337 15.7153 48.254 17.2238C46.7743 18.7323 45.9454 20.7611 45.9454 22.8742C45.9454 24.9873 46.7743 27.016 48.254 28.5245C49.7337 30.0331 51.7461 30.9009 53.8588 30.9417C54.6007 30.9777 55.3413 30.8462 56.0254 30.5569C56.7096 30.2677 57.3198 29.828 57.8108 29.2707V29.9627C57.809 30.0381 57.8226 30.1131 57.8507 30.1831C57.8787 30.2532 57.9207 30.3168 57.9741 30.3701C58.0275 30.4234 58.0912 30.4653 58.1613 30.4932C58.2313 30.5212 58.3064 30.5346 58.3818 30.5327H61.6818V15.2127H58.3818C58.2314 15.2165 58.0882 15.278 57.9819 15.3845C57.8756 15.491 57.8144 15.6343 57.8108 15.7847V15.7857ZM57.8108 25.6047C57.4331 26.1254 56.9368 26.5487 56.3629 26.8393C55.789 27.1299 55.1541 27.2795 54.5108 27.2757C53.9154 27.3041 53.3203 27.2113 52.7618 27.003C52.2032 26.7947 51.6927 26.4752 51.2613 26.0638C50.8298 25.6524 50.4863 25.1578 50.2517 24.6098C50.017 24.0618 49.896 23.4718 49.896 22.8757C49.896 22.2795 50.017 21.6896 50.2517 21.1416C50.4863 20.5936 50.8298 20.0989 51.2613 19.6876C51.6927 19.2762 52.2032 18.9567 52.7618 18.7484C53.3203 18.54 53.9154 18.4473 54.5108 18.4757C55.1525 18.4807 55.7843 18.6342 56.3568 18.9241C56.9293 19.214 57.4269 19.6324 57.8108 20.1467V25.6047ZM64.1268 15.2147H68.0378V30.5347H64.1268V15.2137V15.2147ZM122.555 14.8067C121.817 14.7756 121.081 14.9054 120.399 15.187C119.716 15.4686 119.103 15.8954 118.602 16.4377V7.83768H114.691V30.5327H117.991C118.141 30.5296 118.285 30.4684 118.391 30.362C118.497 30.2555 118.558 30.1121 118.561 29.9617V29.2697C119.056 29.8215 119.667 30.2574 120.35 30.5462C121.033 30.835 121.772 30.9697 122.513 30.9407C124.622 30.8995 126.631 30.0342 128.11 28.5301C129.589 27.026 130.42 25.0026 130.425 22.8932C130.431 20.7838 129.61 18.7561 128.139 17.2443C126.668 15.7325 124.664 14.8568 122.555 14.8047V14.8067ZM121.903 27.2347C121.259 27.2433 120.622 27.0958 120.047 26.8048C119.473 26.5138 118.977 26.088 118.603 25.5637V20.1037C119 19.6034 119.5 19.195 120.07 18.9066C120.639 18.6181 121.265 18.4564 121.903 18.4327C123.07 18.4327 124.189 18.8962 125.014 19.7214C125.839 20.5466 126.303 21.6657 126.303 22.8327C126.303 23.9996 125.839 25.1188 125.014 25.9439C124.189 26.7691 123.07 27.2327 121.903 27.2327V27.2347ZM112.654 21.4497V30.5767H108.742V21.8977C108.742 19.3717 107.927 18.3527 105.728 18.3527C105.122 18.3706 104.527 18.5138 103.98 18.7733C103.433 19.0329 102.946 19.4032 102.549 19.8607V30.5357H98.6388V15.2147H101.739C101.889 15.2178 102.033 15.2789 102.139 15.3853C102.246 15.4917 102.307 15.6352 102.31 15.7857V16.4377C102.854 15.8961 103.504 15.4719 104.218 15.1913C104.933 14.9108 105.697 14.7799 106.465 14.8067C108.023 14.7534 109.546 15.2756 110.744 16.2737C112.129 17.4147 112.659 18.8807 112.659 21.4487L112.654 21.4497ZM89.1428 14.8077C88.4052 14.7767 87.6697 14.9065 86.9873 15.1881C86.3048 15.4698 85.6919 15.8965 85.1908 16.4387V7.83868H81.2798V30.5337H84.5798C84.7303 30.5306 84.8738 30.4695 84.9802 30.363C85.0866 30.2566 85.1477 30.1132 85.1508 29.9627V29.2707C85.6463 29.8225 86.2573 30.2583 86.9404 30.5471C87.6234 30.836 88.3617 30.9707 89.1028 30.9417C91.2118 30.9004 93.2208 30.035 94.6996 28.5308C96.1784 27.0265 97.0095 25.0031 97.0148 22.8937C97.0202 20.7844 96.1994 18.7567 94.7283 17.245C93.2571 15.7333 91.2526 14.8577 89.1438 14.8057L89.1428 14.8077ZM88.4908 27.2357C87.8467 27.2444 87.2101 27.0969 86.6354 26.8059C86.0607 26.5149 85.565 26.089 85.1908 25.5647V20.1047C85.5876 19.6044 86.088 19.196 86.6577 18.9076C87.2274 18.6191 87.8527 18.4574 88.4908 18.4337C89.0863 18.4053 89.6813 18.4981 90.2399 18.7064C90.7984 18.9147 91.3089 19.2342 91.7403 19.6456C92.1718 20.0569 92.5153 20.5516 92.75 21.0996C92.9846 21.6476 93.1056 22.2375 93.1056 22.8337C93.1056 23.4298 92.9846 24.0197 92.75 24.5677C92.5153 25.1158 92.1718 25.6104 91.7403 26.0218C91.3089 26.4332 90.7984 26.7527 90.2399 26.961C89.6813 27.1693 89.0863 27.2621 88.4908 27.2337V27.2357ZM77.8978 14.8077C78.502 14.7869 79.106 14.8543 79.6908 15.0077V18.6337C79.6908 18.6337 76.4308 17.5337 74.3908 19.8567V30.5727H70.4788V15.2137H73.7788C73.9292 15.2168 74.0726 15.2779 74.1788 15.3844C74.2851 15.4908 74.346 15.6343 74.3488 15.7847V16.4367C75.2844 15.466 76.5518 14.8839 77.8978 14.8067V14.8077ZM37.2758 29.1507C37.0758 28.6617 36.8688 28.1327 36.6648 27.6837C36.3388 26.9507 36.0128 26.2577 35.7278 25.6057L35.6868 25.5647C32.8748 19.4527 29.8608 13.2647 26.6868 7.14868L26.5648 6.90369C26.2315 6.26969 25.9058 5.63134 25.5878 4.98868C25.186 4.1881 24.6938 3.4362 24.1208 2.74768C23.5057 1.9614 22.7197 1.32536 21.8225 0.887726C20.9252 0.450092 19.9401 0.222331 18.9418 0.22168C17.947 0.225353 16.965 0.446029 16.0643 0.868317C15.1636 1.2906 14.3659 1.90434 13.7268 2.66669C13.1672 3.36498 12.6759 4.11543 12.2598 4.90768C11.9418 5.54968 11.6162 6.18803 11.2828 6.82269L11.1598 7.06769C8.02281 13.1787 4.96681 19.3677 2.15981 25.4837L2.11882 25.5647C1.83382 26.2177 1.50781 26.9097 1.18181 27.6427C0.978477 28.0913 0.774818 28.5803 0.570818 29.1097C0.0497934 30.5141 -0.118144 32.0251 0.0818041 33.5097C0.3002 35.0009 0.904011 36.4092 1.83354 37.5955C2.76308 38.7818 3.98616 39.705 5.38182 40.2737C6.42631 40.7123 7.549 40.9341 8.68181 40.9257C9.03643 40.9188 9.39035 40.8914 9.74181 40.8437C11.1795 40.6611 12.5656 40.19 13.8168 39.4587C15.7142 38.3256 17.4172 36.895 18.8608 35.2217C20.3159 36.8864 22.0202 38.3157 23.9128 39.4587C25.1638 40.1898 26.5494 40.6609 27.9868 40.8437C28.3382 40.8916 28.6922 40.919 29.0468 40.9257C30.18 40.9382 31.3035 40.7162 32.3468 40.2737C33.7433 39.7062 34.9672 38.7835 35.8969 37.5969C36.8266 36.4104 37.4298 35.0014 37.6468 33.5097C37.9467 32.0515 37.8185 30.5377 37.2778 29.1507H37.2758ZM18.9008 31.2697C16.9969 29.0713 15.5929 26.4857 14.7858 23.6917C14.5871 22.8784 14.5457 22.0346 14.6638 21.2057C14.7438 20.5918 14.9672 20.0053 15.3158 19.4937C15.7246 18.9277 16.2642 18.469 16.8886 18.1568C17.5131 17.8446 18.2038 17.6881 18.9018 17.7007C19.602 17.6745 20.2975 17.8249 20.9242 18.1383C21.551 18.4517 22.0887 18.9178 22.4878 19.4937C22.8358 20.0056 23.0591 20.5919 23.1398 21.2057C23.2582 22.0345 23.2168 22.8784 23.0178 23.6917C22.1912 26.4775 20.7885 29.0585 18.9008 31.2677V31.2697ZM35.1568 33.1847C35.0103 34.2344 34.5908 35.2271 33.9402 36.0638C33.2897 36.9006 32.431 37.5519 31.4498 37.9527C30.4686 38.3522 29.4009 38.4924 28.3498 38.3597C27.2546 38.2236 26.1993 37.8631 25.2498 37.3007C23.4991 36.2412 21.9306 34.9064 20.6048 33.3477C22.9054 30.7576 24.5907 27.6809 25.5348 24.3477C25.7989 23.2129 25.8666 22.0413 25.7348 20.8837C25.5841 19.8882 25.2078 18.9404 24.6348 18.1127C23.9862 17.198 23.1235 16.4561 22.1221 15.9518C21.1206 15.4475 20.0108 15.1961 18.8898 15.2197C17.7703 15.2051 16.6637 15.4604 15.6637 15.964C14.6637 16.4675 13.7997 17.2045 13.1448 18.1127C12.572 18.9405 12.1957 19.8883 12.0448 20.8837C11.8716 22.0398 11.9397 23.2192 12.2448 24.3477C12.8558 27.0367 14.5258 30.0927 17.1748 33.3927C15.8585 34.9609 14.2884 36.2971 12.5298 37.3457C11.5806 37.9087 10.5251 38.2693 9.42983 38.4047C8.37878 38.5225 7.31484 38.3828 6.32982 37.9977C5.35155 37.5933 4.49638 36.9395 3.84963 36.1014C3.20287 35.2634 2.78712 34.2705 2.64382 33.2217C2.50933 32.1482 2.63521 31.0582 3.01082 30.0437C3.13282 29.6357 3.33682 29.2287 3.54082 28.7437C3.82582 28.0917 4.1518 27.3987 4.4778 26.7057L4.51882 26.6247C7.32982 20.5537 10.3448 14.3607 13.4818 8.33069L13.6038 8.08569C13.9298 7.47469 14.2558 6.82267 14.5818 6.21167C14.8895 5.57078 15.2726 4.96887 15.7228 4.41867C16.1244 3.94622 16.6239 3.56672 17.1868 3.30646C17.7496 3.0462 18.3622 2.91141 18.9823 2.91141C19.6024 2.91141 20.2151 3.0462 20.7779 3.30646C21.3407 3.56672 21.8402 3.94622 22.2418 4.41867C22.6915 4.96927 23.0745 5.57112 23.3828 6.21167C23.7088 6.82267 24.0348 7.47469 24.3608 8.08569L24.4838 8.33069C27.5731 14.3854 30.5475 20.497 33.4068 26.6657V26.7067C33.7328 27.3597 34.0178 28.0927 34.3438 28.7447C34.5438 29.2327 34.7508 29.6447 34.8738 30.0447C35.2096 31.0544 35.3068 32.1281 35.1578 33.1817L35.1568 33.1847Z" fill="#8989A2"/>
</svg>
