<svg width="21" height="17" viewBox="0 0 21 17" fill="none" xmlns="http://www.w3.org/2000/svg">
<path d="M20.6302 7.59573L1.40325 0.0402936C1.3248 0.0128242 1.24012 0.00845729 1.15927 0.0277116C1.07842 0.0469658 1.00479 0.0890325 0.947148 0.14891C0.889505 0.208787 0.850269 0.283956 0.834101 0.365483C0.817934 0.44701 0.825516 0.531464 0.855947 0.608807L2.43209 6.27768C2.47768 6.44117 2.57253 6.58664 2.70373 6.69431C2.83493 6.80198 2.99612 6.86661 3.16536 6.87943L16.4646 7.86372C16.5523 7.87079 16.7418 7.90756 16.7397 7.99737C16.7376 8.08717 16.5573 8.12889 16.4696 8.13596L3.33011 8.91661C3.15214 8.92679 2.98229 8.99448 2.8461 9.1095C2.70991 9.22453 2.61474 9.38066 2.57492 9.55441L1.14515 15.719C1.11946 15.7966 1.11611 15.8799 1.13548 15.9593C1.15486 16.0387 1.19617 16.1111 1.25472 16.1682C1.31327 16.2253 1.38669 16.2647 1.46659 16.2821C1.54649 16.2994 1.62966 16.2939 1.7066 16.2663L20.6366 8.41244C20.7204 8.38154 20.7926 8.32552 20.8434 8.25204C20.8942 8.17855 20.9211 8.09118 20.9204 8.00185C20.9197 7.91251 20.8915 7.82557 20.8395 7.75289C20.7876 7.6802 20.7145 7.62532 20.6302 7.59573Z" fill="#722ED1"/>
</svg>
