<svg width="55" height="34" viewBox="0 0 55 34" fill="none" xmlns="http://www.w3.org/2000/svg">
<path d="M23.9038 1.50853C23.9118 1.40847 23.8973 1.30791 23.8615 1.21414C23.8257 1.12038 23.7694 1.03576 23.6969 0.966433C23.6243 0.897108 23.5372 0.844815 23.4419 0.813351C23.3466 0.781886 23.2454 0.77204 23.1458 0.784527H20.4758C20.2298 0.755733 19.9804 0.78319 19.7465 0.864827C19.5127 0.946463 19.3004 1.08015 19.1257 1.2558C18.951 1.43144 18.8185 1.64447 18.7381 1.8788C18.6578 2.11313 18.6317 2.36264 18.6618 2.60853V25.4775C18.6548 25.578 18.67 25.6788 18.7064 25.7727C18.7429 25.8666 18.7997 25.9513 18.8727 26.0207C18.9457 26.09 19.0331 26.1424 19.1288 26.174C19.2244 26.2057 19.3259 26.2157 19.4258 26.2035H22.0898C22.3361 26.2324 22.5856 26.2049 22.8197 26.1231C23.0538 26.0414 23.2662 25.9075 23.4409 25.7317C23.6156 25.5558 23.7481 25.3425 23.8283 25.1079C23.9085 24.8733 23.9343 24.6236 23.9038 24.3775V1.50853ZM54.4178 9.22253C54.4178 8.79353 54.1008 8.58153 53.6688 8.58153H50.4288C50.1757 8.55274 49.9205 8.61212 49.706 8.74966C49.4916 8.8872 49.3312 9.09447 49.2518 9.33653L44.6838 19.4745L38.3178 9.44253C38.1466 9.13813 37.8869 8.89302 37.573 8.73977C37.2592 8.58652 36.9062 8.53237 36.5608 8.58453H32.7108C32.3905 8.56145 32.0693 8.61489 31.7737 8.74042C31.4782 8.86596 31.2167 9.06 31.0108 9.30653L24.2268 16.5845L30.3058 25.4505C30.4134 25.6719 30.5803 25.859 30.7879 25.9911C30.9956 26.1231 31.2358 26.1949 31.4818 26.1985H35.1078C35.6508 26.1985 35.9668 25.9805 35.9668 25.5245C35.9448 25.2575 35.8335 25.0056 35.6508 24.8095L30.3068 16.8975L34.3598 12.5315L42.3708 24.3735L38.8348 31.8545C38.7214 32.0541 38.648 32.2739 38.6188 32.5015C38.6188 32.9345 38.9368 33.1425 39.3698 33.1425H42.5848C42.8376 33.1726 43.093 33.1141 43.3074 32.977C43.5219 32.8398 43.6821 32.6326 43.7608 32.3905L54.2058 9.87053C54.3213 9.67183 54.3935 9.45102 54.4178 9.22253ZM6.94085 14.6775C5.87585 14.4375 5.54085 14.1365 5.54085 13.5995C5.54085 13.1815 5.87185 12.8485 6.83185 12.8485H14.6048C14.8504 12.8786 15.0996 12.8525 15.3336 12.7721C15.5675 12.6917 15.7802 12.5592 15.9554 12.3845C16.1306 12.2099 16.2639 11.9977 16.345 11.764C16.4262 11.5303 16.4531 11.2812 16.4238 11.0355V9.34253C16.4364 9.24287 16.4267 9.14166 16.3954 9.04622C16.364 8.95078 16.3119 8.86349 16.2427 8.79067C16.1735 8.71784 16.089 8.6613 15.9953 8.62513C15.9016 8.58896 15.801 8.57407 15.7008 8.58153H6.60085C2.54385 8.58453 0.417847 10.9335 0.417847 13.9245C0.417847 16.5885 2.05385 18.2105 5.32785 18.9385L10.5518 20.1075C11.6138 20.3425 11.9438 20.6475 11.9438 21.1915C11.9438 21.6035 11.6148 21.9365 10.6578 21.9365H2.55785C2.31182 21.9052 2.06189 21.9304 1.8271 22.0103C1.5923 22.0902 1.37882 22.2226 1.20292 22.3974C1.02702 22.5723 0.893338 22.7849 0.812051 23.0192C0.730764 23.2535 0.704017 23.5033 0.733847 23.7495V25.4395C0.721063 25.539 0.730485 25.6401 0.761435 25.7355C0.792385 25.831 0.844094 25.9183 0.912844 25.9914C0.981594 26.0645 1.06568 26.1214 1.15905 26.158C1.25242 26.1947 1.35276 26.2103 1.45285 26.2035H10.3418C15.1418 26.2035 17.0728 23.8535 17.0728 21.0705C17.0728 18.1945 15.4158 16.5705 12.1648 15.8475L6.94085 14.6775Z" fill="#8989A2"/>
</svg>
