<?xml version="1.0" standalone="no"?>
<!DOCTYPE svg PUBLIC "-//W3C//DTD SVG 20010904//EN"
 "http://www.w3.org/TR/2001/REC-SVG-20010904/DTD/svg10.dtd">
<svg version="1.0" xmlns="http://www.w3.org/2000/svg"
 width="500.000000pt" height="500.000000pt" viewBox="0 0 500.000000 500.000000"
 preserveAspectRatio="xMidYMid meet">
<metadata>
Created by potrace 1.14, written by Peter Selinger 2001-2017
</metadata>
<g transform="translate(0.000000,500.000000) scale(0.100000,-0.100000)"
fill="#000000" stroke="none">
<path d="M2238 4345 c-549 -75 -1036 -401 -1342 -897 -112 -182 -212 -471
-242 -703 -21 -160 -14 -447 15 -589 80 -390 249 -706 526 -981 291 -290 690
-482 1093 -525 139 -16 412 -8 533 14 378 70 718 247 984 511 272 270 442 584
521 958 34 165 43 437 20 612 -97 733 -631 1349 -1341 1548 -124 34 -131 36
-257 52 -135 18 -378 18 -510 0z m-598 -2241 c0 -9 -20 -40 -45 -68 -25 -29
-45 -56 -45 -60 0 -3 14 -6 30 -6 20 0 30 5 30 15 0 8 7 15 15 15 9 0 15 -9
15 -25 0 -24 -2 -25 -65 -25 -45 0 -65 4 -65 13 0 6 18 35 40 62 22 28 40 56
40 63 0 21 -41 14 -47 -8 -8 -32 -33 -24 -33 10 l0 30 65 0 c53 0 65 -3 65
-16z m240 -9 c0 -16 -6 -25 -15 -25 -8 0 -15 7 -15 15 0 18 -31 20 -48 3 -18
-18 -14 -38 8 -38 26 0 26 -26 -1 -33 -13 -4 -20 -12 -17 -24 4 -23 48 -30 60
-9 13 24 28 19 28 -9 0 -24 -2 -25 -65 -25 -37 0 -65 4 -65 10 0 6 5 10 10 10
6 0 10 26 10 59 0 33 -4 63 -10 66 -25 16 -5 25 55 25 63 0 65 -1 65 -25z
m191 -30 c18 -30 38 -55 43 -55 5 0 6 25 4 55 -4 52 -3 55 18 55 13 0 26 -4
29 -10 3 -5 1 -10 -4 -10 -7 0 -11 -29 -11 -75 0 -65 -2 -75 -18 -75 -11 0
-31 21 -51 55 -18 30 -37 55 -42 55 -12 0 -11 -77 1 -85 20 -12 9 -25 -20 -25
-29 0 -40 13 -20 25 6 3 10 30 10 60 0 30 -4 57 -10 60 -18 11 -11 25 13 25
17 0 32 -14 58 -55z m339 30 c0 -27 -15 -34 -24 -10 -3 8 -12 15 -21 15 -12 0
-15 -13 -15 -65 0 -37 4 -65 10 -65 6 0 10 -4 10 -10 0 -5 -16 -10 -35 -10
-19 0 -35 5 -35 10 0 6 5 10 10 10 6 0 10 28 10 65 0 52 -3 65 -15 65 -9 0
-18 -7 -21 -15 -9 -24 -24 -17 -24 10 0 24 2 25 75 25 73 0 75 -1 75 -25z
m170 16 c0 -6 -4 -13 -10 -16 -5 -3 -10 -30 -10 -60 0 -30 5 -57 10 -60 20
-12 9 -25 -20 -25 -29 0 -40 13 -20 25 6 3 10 30 10 60 0 30 -4 57 -10 60 -20
12 -9 25 20 25 17 0 30 -4 30 -9z m250 -16 c0 -27 -17 -34 -26 -10 -4 8 -12
15 -20 15 -11 0 -14 -16 -14 -65 0 -37 4 -65 10 -65 6 0 10 -4 10 -10 0 -5
-16 -10 -35 -10 -19 0 -35 5 -35 10 0 6 5 10 10 10 14 0 13 117 -2 126 -6 4
-16 0 -23 -9 -17 -24 -25 -21 -25 8 0 24 2 25 75 25 73 0 75 -1 75 -25z m240
0 c0 -27 -24 -35 -34 -10 -3 8 -15 15 -26 15 -15 0 -20 -7 -20 -25 0 -16 6
-25 15 -25 22 0 18 -27 -4 -33 -29 -7 -20 -41 12 -45 19 -2 27 1 27 12 0 9 7
16 15 16 9 0 15 -9 15 -25 0 -24 -2 -25 -72 -25 -68 0 -70 1 -55 18 18 20 25
122 8 122 -5 0 -11 7 -15 15 -4 12 6 15 64 15 68 0 70 -1 70 -25z m231 15 c10
-6 19 -17 19 -25 0 -19 -5 -19 -35 1 -30 19 -48 14 -71 -20 -34 -53 10 -109
67 -85 34 14 48 6 29 -16 -13 -15 -65 -20 -95 -9 -19 8 -45 55 -45 83 0 11 12
33 26 50 27 33 67 41 105 21z m209 0 c0 -5 -4 -10 -10 -10 -5 0 -10 -11 -10
-25 0 -23 4 -25 45 -25 41 0 45 2 45 25 0 14 -4 25 -10 25 -5 0 -10 5 -10 10
0 6 16 10 35 10 34 0 46 -12 25 -25 -5 -3 -10 -33 -10 -66 0 -33 4 -59 10 -59
6 0 10 -4 10 -10 0 -5 -16 -10 -35 -10 -32 0 -48 14 -26 22 5 2 11 14 13 28 3
23 0 25 -44 28 -47 3 -48 3 -48 -27 0 -17 5 -31 10 -31 6 0 10 -4 10 -10 0 -5
-16 -10 -35 -10 -19 0 -35 5 -35 10 0 6 5 10 10 10 6 0 10 26 10 59 0 33 -4
63 -10 66 -21 13 -9 25 25 25 19 0 35 -4 35 -10z"/>
</g>
</svg>
